<svg width="375" height="218" viewBox="0 0 375 218" fill="none" xmlns="http://www.w3.org/2000/svg">
<g id="Group 17">
<path id="Path 3" fill-rule="evenodd" clip-rule="evenodd" d="M309.564 41.3425C213.876 11.406 115.487 -38.5258 14.7569 52.6754C-85.9731 143.877 -149.301 223.768 -108.406 327.138C-67.5102 430.508 99.4214 366.123 147.924 458.511C196.427 550.899 89.8554 634.748 135.801 716.973C181.746 799.198 217.075 851.897 364.728 799.616C512.382 747.334 498.768 614.308 611.052 536.409C723.335 458.511 844.819 341.893 678.102 133.805C511.384 -74.2829 405.251 71.2791 309.564 41.3425Z" stroke="#96A9C6"/>
<path id="Path 3 Copy" fill-rule="evenodd" clip-rule="evenodd" d="M321.902 90.6721C243.919 66.3578 163.733 25.8035 81.6395 99.8766C-0.453674 173.95 -52.065 238.837 -18.7359 322.794C14.5932 406.75 150.64 354.457 190.169 429.494C229.697 504.531 142.844 572.634 180.288 639.416C217.733 706.199 246.525 749 366.86 706.538C487.195 664.075 476.1 556.032 567.61 492.763C659.119 429.494 758.126 334.778 622.254 165.77C486.382 -3.23829 399.885 114.986 321.902 90.6721Z" stroke="#96A9C6"/>
<path id="Path 3 Copy 2" fill-rule="evenodd" clip-rule="evenodd" d="M344.947 122.546C281.844 102.722 216.958 69.6573 150.529 130.05C84.0995 190.443 42.336 243.347 69.3056 311.798C96.2753 380.249 206.363 337.614 238.35 398.793C270.336 459.971 200.054 515.496 230.354 569.945C260.654 624.394 283.953 659.291 381.327 624.67C478.701 590.05 469.723 501.961 543.772 450.377C617.82 398.793 697.936 321.569 587.99 183.774C478.043 45.9791 408.051 142.37 344.947 122.546Z" stroke="#96A9C6"/>
<path id="Path 3 Copy 5" fill-rule="evenodd" clip-rule="evenodd" d="M368.21 162.166C317.271 146.285 264.894 119.797 211.27 168.178C157.647 216.56 123.934 258.941 145.705 313.778C167.475 368.614 256.341 334.458 282.162 383.469C307.982 432.48 251.249 476.961 275.708 520.58C300.167 564.2 318.974 592.156 397.577 564.421C476.181 536.687 468.933 466.118 528.707 424.793C588.482 383.469 653.153 321.605 564.401 211.217C475.649 100.829 419.149 178.047 368.21 162.166Z" stroke="#96A9C6"/>
<path id="Path 3 Copy 4" fill-rule="evenodd" clip-rule="evenodd" d="M373.18 187.232C331.582 174.235 288.809 152.557 245.018 192.152C201.227 231.746 173.697 266.431 191.475 311.309C209.254 356.186 281.825 328.234 302.91 368.344C323.996 408.454 277.666 444.857 297.64 480.554C317.614 516.252 332.972 539.131 397.162 516.433C461.352 493.735 455.434 435.982 504.247 402.163C553.061 368.344 605.874 317.715 533.396 227.374C460.918 137.033 414.779 200.228 373.18 187.232Z" stroke="#96A9C6"/>
<path id="Path 3 Copy 3" fill-rule="evenodd" clip-rule="evenodd" d="M384.992 205.895C351.214 195.344 316.482 177.746 280.923 209.889C245.365 242.032 223.009 270.188 237.446 306.62C251.882 343.052 310.811 320.36 327.932 352.921C345.054 385.482 307.434 415.034 323.653 444.013C339.872 472.992 352.343 491.565 404.466 473.14C456.589 454.714 451.783 407.83 491.42 380.375C531.057 352.921 573.942 311.82 515.089 238.482C456.237 165.144 418.771 216.445 384.992 205.895Z" stroke="#96A9C6"/>
</g>
</svg>
